<svg id="Layer_1" data-name="Layer 1" xmlns="http://www.w3.org/2000/svg" viewBox="0 0 252 144"><path d="M72.22,25.34c-3.47-4-8.17-5.95-14.13-5.95H37.33L22.51,124.61H36.36l6.09-43.2h6.92a23.08,23.08,0,0,0,15.78-6,24.07,24.07,0,0,0,7.9-14.95l2.77-20.22C76.79,34.34,75.54,29.36,72.22,25.34Zm-10,13.57-3.19,23a8.11,8.11,0,0,1-2.77,5A7.43,7.43,0,0,1,51,69H44.11l5.26-37.1h6.92A5.94,5.94,0,0,1,61,33.79,6.41,6.41,0,0,1,62.25,38.91Z" fill="#231f20"/><path d="M107.38,18a22.56,22.56,0,0,0-15.65,6,23.62,23.62,0,0,0-8,14.95l-9.27,66.18q-1.25,8.93,3.73,15c3.33,4,8,6,14,6a23,23,0,0,0,13.66-4.29l1.81,2.9h13.2l-7.29-11.69a24.44,24.44,0,0,0,2.43-7.83l9.28-66.18Q126.48,30,121.5,24C118,19.94,113.33,18,107.38,18Zm-8.17,93.46A7.4,7.4,0,0,1,94,113.54a5.61,5.61,0,0,1-4.71-2.08,5.94,5.94,0,0,1-1.24-5l9.69-69a7.83,7.83,0,0,1,7.89-7.06,6,6,0,0,1,4.71,1.94,6.43,6.43,0,0,1,1.24,5.12l-8.29,59H90.72a.34.34,0,0,0-.29.52l8.91,14.29S99.26,111.42,99.21,111.46Z" fill="#231f20"/><polygon points="163.73 84.6 155.42 19.39 141.16 19.39 126.34 124.61 138.81 124.61 147.94 59.4 156.39 124.61 170.65 124.61 185.47 19.39 173 19.39 163.73 84.6" fill="#231f20"/><polygon points="190.72 19.39 188.92 31.85 201.38 31.85 188.37 124.61 202.22 124.61 215.23 31.85 227.69 31.85 229.49 19.39 190.72 19.39" fill="#231f20"/></svg>